<svg width="25" height="25" viewBox="0 0 25 25" fill="none" xmlns="http://www.w3.org/2000/svg">
<path d="M20.8474 1.21118H3.94152C3.0632 1.21118 2.22083 1.5601 1.59976 2.18117C0.978677 2.80226 0.629761 3.64461 0.629761 4.52295V21.4288C0.629761 22.3072 0.978677 23.1496 1.59976 23.7706C2.22083 24.3916 3.0632 24.7406 3.94152 24.7406H11.6356V16.1523H8.72682V12.8024H11.6356V10.3347C11.6356 8.93618 12.0224 7.84942 12.7959 7.07736C13.5695 6.30383 14.618 5.9156 15.943 5.9156C17.2694 5.9156 18.1283 5.96707 18.5209 6.06413V9.04648H16.7533C16.115 9.04648 15.6797 9.18177 15.4459 9.45236C15.2136 9.72148 15.0974 10.1274 15.0974 10.6671V12.8024H18.4106L17.9694 16.1523H15.0974V24.7406H20.8474C21.7258 24.7406 22.5681 24.3916 23.1891 23.7706C23.8103 23.1496 24.1591 22.3072 24.1591 21.4288V4.52295C24.1591 3.64461 23.8103 2.80226 23.1891 2.18117C22.5681 1.5601 21.7258 1.21118 20.8474 1.21118Z" fill="#FF415B"/>
</svg>
