<svg width="26" height="25" viewBox="0 0 26 25" fill="none" xmlns="http://www.w3.org/2000/svg">
<path d="M20.9045 7.03684C20.9045 7.21566 20.8677 7.39275 20.7966 7.55796C20.7255 7.72318 20.6211 7.8733 20.4897 7.99975C20.3581 8.12621 20.202 8.2265 20.0301 8.29494C19.8583 8.36338 19.6742 8.3986 19.4882 8.3986C19.3022 8.3986 19.1181 8.36338 18.9462 8.29494C18.7744 8.2265 18.6183 8.12621 18.4868 7.99975C18.3552 7.8733 18.2509 7.72318 18.1798 7.55796C18.1085 7.39275 18.072 7.21566 18.072 7.03684C18.072 6.67568 18.2211 6.32931 18.4868 6.07393C18.7524 5.81855 19.1126 5.67507 19.4882 5.67507C19.8638 5.67507 20.224 5.81855 20.4897 6.07393C20.7552 6.32931 20.9045 6.67568 20.9045 7.03684ZM25.4009 13.1839V13.2015L25.3199 18.1369C25.2992 19.9167 24.5547 21.6182 23.2458 22.8769C21.9371 24.1357 20.1677 24.8519 18.3167 24.8721L13.1656 24.9486H13.1472L8.01454 24.8707C6.16345 24.8508 4.39398 24.1349 3.08485 22.8766C1.7757 21.618 1.03089 19.9167 1.00983 18.1369L0.930298 13.1839V13.1663L1.01136 8.23096C1.03202 6.45106 1.77644 4.74965 3.08529 3.49087C4.39415 2.23207 6.16345 1.51591 8.01454 1.49566L13.1656 1.41919H13.184L18.3167 1.49713C20.1677 1.517 21.9373 2.23278 23.2463 3.4913C24.5555 4.74981 25.3003 6.45106 25.3214 8.23096L25.4009 13.1839ZM23.1221 13.1839L23.0426 8.26478C23.0282 7.0549 22.522 5.89846 21.6323 5.04288C20.7425 4.18732 19.5398 3.70059 18.2815 3.68684L13.1656 3.61037L8.04972 3.68684C6.79144 3.70059 5.58874 4.18732 4.69894 5.04288C3.80916 5.89846 3.30296 7.0549 3.28866 8.26478L3.20913 13.1839L3.28866 18.103C3.30296 19.3129 3.80916 20.4694 4.69894 21.3249C5.58874 22.1805 6.79144 22.6671 8.04972 22.681L13.1656 22.7574L18.2815 22.681C19.5398 22.6671 20.7425 22.1805 21.6323 21.3249C22.522 20.4694 23.0282 19.3129 23.0426 18.103L23.1221 13.1839ZM19.4485 13.1839C19.4485 14.7861 18.7865 16.3227 17.6083 17.4557C16.43 18.5886 14.8319 19.2251 13.1656 19.2251C11.4993 19.2251 9.90122 18.5886 8.72296 17.4557C7.5447 16.3227 6.88278 14.7861 6.88278 13.1839C6.88278 11.5817 7.5447 10.0451 8.72296 8.91213C9.90122 7.77919 11.4993 7.14272 13.1656 7.14272C14.8319 7.14272 16.43 7.77919 17.6083 8.91213C18.7865 10.0451 19.4485 11.5817 19.4485 13.1839ZM17.1696 13.1839C17.1696 12.1628 16.7478 11.1835 15.9969 10.4615C15.246 9.73952 14.2275 9.3339 13.1656 9.3339C12.1037 9.3339 11.0852 9.73952 10.3343 10.4615C9.58344 11.1835 9.1616 12.1628 9.1616 13.1839C9.1616 14.205 9.58344 15.1842 10.3343 15.9063C11.0852 16.6283 12.1037 17.0339 13.1656 17.0339C14.2275 17.0339 15.246 16.6283 15.9969 15.9063C16.7478 15.1842 17.1696 14.205 17.1696 13.1839Z" fill="#FF415B"/>
</svg>
