<svg width="26" height="25" viewBox="0 0 26 25" fill="none" xmlns="http://www.w3.org/2000/svg">
<g clip-path="url(#clip0_20_264)">
<path fill-rule="evenodd" clip-rule="evenodd" d="M26 12.5C26 19.4035 20.1797 25 13 25C5.82032 25 0 19.4035 0 12.5C0 5.59646 5.82032 0 13 0C20.1797 0 26 5.59646 26 12.5ZM8.7054 11.3549C7.40312 11.9017 6.0651 12.4634 4.84155 13.1115C4.20267 13.5612 5.05179 13.8794 5.84843 14.1779C5.97507 14.2253 6.10036 14.2722 6.21817 14.3191C6.31621 14.3481 6.41588 14.3786 6.5169 14.4096C7.4029 14.681 8.3908 14.9836 9.25096 14.5284C10.664 13.7479 11.9974 12.8456 13.3298 11.944C13.7664 11.6486 14.2028 11.3533 14.6418 11.0623C14.6624 11.0497 14.6856 11.0352 14.711 11.0194C15.085 10.7863 15.9263 10.2619 15.6151 10.9844C14.8793 11.7582 14.0911 12.4431 13.2987 13.1318C12.7646 13.5959 12.2286 14.0617 11.7054 14.5576C11.2497 14.9136 10.7764 15.6296 11.2867 16.1282C12.4621 16.9193 13.6558 17.6913 14.8488 18.4629C15.237 18.7139 15.6252 18.9649 16.0126 19.2166C16.6693 19.7207 17.6954 19.3129 17.8398 18.5253C17.904 18.1629 17.9684 17.8006 18.0329 17.4383C18.3891 15.4358 18.7454 13.4327 19.0602 11.4237C19.103 11.1085 19.1514 10.7934 19.2 10.4782C19.3176 9.71406 19.4353 8.94901 19.4721 8.18078C19.3773 7.41411 18.4105 7.58271 17.8726 7.7551C15.1072 8.76687 12.3696 9.85365 9.6427 10.9596C9.33378 11.0911 9.02065 11.2226 8.7054 11.3549Z" fill="#FF415B"/>
</g>
<defs>
<clipPath id="clip0_20_264">
<rect width="26" height="25" fill="white"/>
</clipPath>
</defs>
</svg>
