<svg width="25" height="25" viewBox="0 0 25 25" fill="none" xmlns="http://www.w3.org/2000/svg">
<g clip-path="url(#clip0_20_260)">
<path fill-rule="evenodd" clip-rule="evenodd" d="M0 12.5C0 5.59646 5.59646 0 12.5 0C19.4035 0 25 5.59646 25 12.5C25 19.4035 19.4035 25 12.5 25C5.59646 25 0 19.4035 0 12.5ZM12.1256 10.1602L12.1519 10.5927L11.7147 10.5397C10.1234 10.3367 8.73318 9.64818 7.55276 8.49182L6.97573 7.91807L6.82708 8.34177C6.51229 9.28625 6.71339 10.2837 7.36917 10.9546C7.71891 11.3253 7.64021 11.3783 7.03693 11.1576C6.82708 11.087 6.64344 11.0341 6.62599 11.0605C6.56479 11.1223 6.77463 11.9256 6.94073 12.2433C7.16807 12.6847 7.63146 13.1172 8.13859 13.3732L8.56703 13.5762L8.0599 13.5851C7.57026 13.5851 7.55276 13.5939 7.60526 13.7793C7.7801 14.353 8.47083 14.9621 9.24026 15.2269L9.7824 15.4123L9.31021 15.6947C8.61073 16.1008 7.78885 16.3303 6.96698 16.348C6.57349 16.3568 6.25 16.3921 6.25 16.4186C6.25 16.5068 7.31672 17.0011 7.9375 17.1954C9.79984 17.7691 12.012 17.522 13.6732 16.5421C14.8536 15.8448 16.034 14.459 16.5848 13.1172C16.8821 12.4022 17.1794 11.0958 17.1794 10.4691C17.1794 10.0631 17.2056 10.0101 17.6952 9.52458C17.9837 9.24214 18.2548 8.93318 18.3073 8.8449C18.3947 8.67719 18.386 8.67719 17.9401 8.82724C17.1969 9.09208 17.0919 9.05677 17.4592 8.65953C17.7302 8.37708 18.0537 7.8651 18.0537 7.71505C18.0537 7.68854 17.9226 7.73271 17.7739 7.81214C17.6166 7.90042 17.2668 8.03281 17.0045 8.11229L16.5323 8.26234L16.1039 7.97104C15.8679 7.81214 15.5356 7.63562 15.3607 7.58266C14.9148 7.45906 14.2328 7.47672 13.8306 7.61797C12.7377 8.01516 12.0469 9.03911 12.1256 10.1602Z" fill="#FF415B"/>
</g>
<defs>
<clipPath id="clip0_20_260">
<rect width="25" height="25" fill="white"/>
</clipPath>
</defs>
</svg>
